HIERARCHY
ROOT Hips
{
	OFFSET 0.000000 0.000000 0.000000
	CHANNELS 6 Xposition Yposition Zposition Zrotation Yrotation Xrotation 
	JOINT LHipJoint
	{
		OFFSET 0.000000 0.000000 0.000000
		CHANNELS 3 Zrotation Yrotation Xrotation
		JOINT LeftUpLeg
		{
			OFFSET 1.363060 -1.794630 0.839290
			CHANNELS 3 Zrotation Yrotation Xrotation
			JOINT LeftLeg
			{
				OFFSET 2.448110 -6.726130 0.000000
				CHANNELS 3 Zrotation Yrotation Xrotation
				JOINT LeftFoot
				{
					OFFSET 2.562200 -7.039590 0.000000
					CHANNELS 3 Zrotation Yrotation Xrotation
					JOINT LeftToeBase
					{
						OFFSET 0.157640 -0.433110 2.322550
						CHANNELS 3 Zrotation Yrotation Xrotation
						End Site
						{
							OFFSET 0.000000 0.000000 0.000000
						}
					}
				}
			}
		}
	}
	JOINT RHipJoint
	{
		OFFSET 0.000000 0.000000 0.000000
		CHANNELS 3 Zrotation Yrotation Xrotation
		JOINT RightUpLeg
		{
			OFFSET -1.305520 -1.794630 0.839290
			CHANNELS 3 Zrotation Yrotation Xrotation
			JOINT RightLeg
			{
				OFFSET -2.542530 -6.985550 0.000000
				CHANNELS 3 Zrotation Yrotation Xrotation
				JOINT RightFoot
				{
					OFFSET -2.568260 -7.056230 0.000000
					CHANNELS 3 Zrotation Yrotation Xrotation
					JOINT RightToeBase
					{
						OFFSET -0.164730 -0.452590 2.363150
						CHANNELS 3 Zrotation Yrotation Xrotation
						End Site
						{
							OFFSET 0.000000 0.000000 0.000000
						}
					}
				}
			}
		}
	}
	JOINT LowerBack
	{
		OFFSET 0.000000 0.000000 0.000000
		CHANNELS 3 Zrotation Yrotation Xrotation
		JOINT Spine
		{
			OFFSET 0.028270 2.035590 -0.193380
			CHANNELS 3 Zrotation Yrotation Xrotation
			JOINT Spine1
			{
				OFFSET 0.056720 2.048850 -0.042750
				CHANNELS 3 Zrotation Yrotation Xrotation
				JOINT Neck
				{
					OFFSET 0.000000 0.000000 0.000000
					CHANNELS 3 Zrotation Yrotation Xrotation
					JOINT Neck1
					{
						OFFSET -0.054170 1.746240 0.172020
						CHANNELS 3 Zrotation Yrotation Xrotation
						JOINT Head
						{
							OFFSET 0.104070 1.761360 -0.123970
							CHANNELS 3 Zrotation Yrotation Xrotation
							End Site
							{
								OFFSET 0.000000 0.000000 0.000000
							}
						}
					}
				}
				JOINT LeftShoulder
				{
					OFFSET 0.000000 0.000000 0.000000
					CHANNELS 3 Zrotation Yrotation Xrotation
					JOINT LeftArm
					{
						OFFSET 3.362410 1.200890 -0.311210
						CHANNELS 3 Zrotation Yrotation Xrotation
						JOINT LeftForeArm
						{
							OFFSET 4.983000 -0.000000 -0.000000
							CHANNELS 3 Zrotation Yrotation Xrotation
							JOINT LeftHand
							{
								OFFSET 3.483560 -0.000000 -0.000000
								CHANNELS 3 Zrotation Yrotation Xrotation
								JOINT LeftFingerBase
								{
									OFFSET 0.000000 0.000000 0.000000
									CHANNELS 3 Zrotation Yrotation Xrotation
									JOINT LeftHandIndex1
									{
										OFFSET 0.715260 -0.000000 -0.000000
										CHANNELS 3 Zrotation Yrotation Xrotation
										End Site
										{
											OFFSET 0.000000 0.000000 0.000000
										}
									}
								}
								JOINT LThumb
								{
									OFFSET 0.000000 0.000000 0.000000
									CHANNELS 3 Zrotation Yrotation Xrotation
									End Site
									{
										OFFSET 0.000000 0.000000 0.000000
									}
								}
							}
						}
					}
				}
				JOINT RightShoulder
				{
					OFFSET 0.000000 0.000000 0.000000
					CHANNELS 3 Zrotation Yrotation Xrotation
					JOINT RightArm
					{
						OFFSET -3.136600 1.374050 -0.404650
						CHANNELS 3 Zrotation Yrotation Xrotation
						JOINT RightForeArm
						{
							OFFSET -5.241900 -0.000000 -0.000000
							CHANNELS 3 Zrotation Yrotation Xrotation
							JOINT RightHand
							{
								OFFSET -3.444170 -0.000000 -0.000000
								CHANNELS 3 Zrotation Yrotation Xrotation
								JOINT RightFingerBase
								{
									OFFSET 0.000000 0.000000 0.000000
									CHANNELS 3 Zrotation Yrotation Xrotation
									JOINT RightHandIndex1
									{
										OFFSET -0.622530 -0.000000 -0.000000
										CHANNELS 3 Zrotation Yrotation Xrotation
										End Site
										{
											OFFSET 0.000000 0.000000 0.000000
										}
									}
								}
								JOINT RThumb
								{
									OFFSET 0.000000 0.000000 0.000000
									CHANNELS 3 Zrotation Yrotation Xrotation
									End Site
									{
										OFFSET 0.000000 0.000000 0.000000
									}
								}
							}
						}
					}
				}
			}
		}
	}
}
MOTION
Frames: 7
Frame Time: 0.008333
-16.236549 14.513991 -0.732874 -8.262377 56.045259 15.253699 5.505431 -0.049359 -2.146677 -26.599007 -7.522603 -60.435604 26.752292 21.482712 110.727272 0.347543 -5.139543 -3.236914 1.835500 -8.514600 -24.288400 -5.994890 -0.458624 -2.176379 18.227843 -3.028953 -20.788155 -11.203726 -18.690119 64.501073 -2.287406 6.631391 -19.643013 -7.225100 15.518500 -49.720500 7.011694 1.896729 33.532884 1.127928 6.680087 -0.806531 3.110091 3.186273 0.613413 -11.866002 -10.139953 -1.326716 13.788237 -14.086491 -8.351233 13.096600 -3.357900 -5.877100 -1.306091 -1.367103 2.352512 -66.601649 20.083353 38.823075 8.016099 -24.743372 -2.362728 -0.593331 -0.695090 14.102385 31.932929 36.130214 20.817700 -7.125000 0.000000 0.000000 -2.677600 71.594400 -1.695600 -0.454039 4.134149 1.393560 24.781991 42.219253 -39.585089 -20.100259 28.811540 -9.062523 0.033815 -0.858370 -33.375193 -6.664195 28.155170 -3.020900 7.125000 0.000000 0.000000 14.250100 -1.679000 14.279300 
-15.822974 14.498097 -0.372424 -8.945238 56.859957 14.547606 5.585633 -0.005467 -2.121367 -26.400065 -10.173728 -62.783500 25.883185 21.960618 108.073253 0.430665 -6.295767 -3.246486 2.199000 -9.268800 -26.639800 -5.814220 -0.565340 -2.163881 18.582134 -4.462754 -17.289093 -10.193820 -17.943748 61.246758 -2.312079 9.649201 -16.981644 -7.257900 15.545300 -49.843100 6.968762 2.052262 33.646989 1.112614 6.871726 -0.769878 2.917745 3.287433 0.752825 -11.322497 -10.150262 -0.878008 13.932444 -14.177134 -8.426838 13.023600 -3.490200 -6.191100 -1.367262 -1.105022 2.252676 -65.662480 23.340167 39.825015 7.620423 -24.541296 -2.192432 -0.547249 -0.865286 11.171293 31.667671 36.341433 20.765500 -7.125000 0.000000 0.000000 -3.507700 71.884600 -2.244000 -0.147503 3.767696 1.807601 25.054348 39.074404 -37.641833 -22.088471 30.886494 -10.467694 0.024401 -0.563137 -33.027231 -6.697368 26.507223 -2.922900 7.125000 0.000000 0.000000 14.097200 -3.512700 13.633300 
-15.382292 14.494505 0.005661 -9.347653 57.832817 14.110387 5.627317 0.085560 -2.064386 -26.481795 -12.529597 -64.779400 24.769786 22.434614 104.776374 0.508038 -6.951947 -3.747028 1.890500 -8.634300 -24.657800 -5.635487 -0.658970 -2.129923 18.650105 -5.830505 -13.486772 -9.028426 -17.015409 57.411730 -2.220261 13.060574 -13.363644 -7.088100 15.405600 -49.206600 6.756954 2.230073 33.528620 1.174239 7.156303 -0.790051 3.478823 3.350497 0.464296 -11.727372 -10.191957 0.390589 13.930823 -14.507757 -8.382242 13.116700 -3.704800 -6.598800 -1.370019 -0.905039 2.152123 -65.566047 26.992946 40.585158 7.151337 -24.366315 -2.016352 -0.483696 -0.980442 9.171918 31.665879 36.570745 20.884000 -7.125000 0.000000 0.000000 -3.931400 72.227100 -2.544900 0.239254 3.388831 2.327856 24.875825 34.200094 -32.752970 -24.151727 33.149363 -12.023659 0.161166 -0.220297 -32.957333 -8.972379 24.701178 -3.820800 7.125000 0.000000 0.000000 12.517800 -5.233700 11.610500 
-14.940303 14.477739 0.399205 -9.719565 58.982131 13.745357 5.668541 0.178644 -2.041941 -26.737235 -14.424566 -66.677663 23.488453 22.848572 101.082625 0.540310 -6.981132 -4.105797 4.517400 -12.818800 -38.693800 -5.450644 -0.750250 -2.078046 18.680411 -6.818992 -9.345894 -7.688850 -15.892460 52.946884 -1.968358 16.409194 -8.825099 -6.831500 15.188300 -48.234000 6.161083 2.201871 33.305292 1.249761 7.066832 -0.764002 4.287214 3.217295 0.580403 -11.824528 -10.070730 0.701022 13.922507 -14.499182 -8.154644 12.993600 -3.796600 -6.663500 -1.275892 -0.793901 2.067031 -66.398824 30.272558 39.484792 6.576683 -24.084833 -1.838168 -0.395555 -1.040861 8.116766 31.439709 36.665196 20.736200 -7.125000 0.000000 0.000000 -4.584800 72.300600 -2.975700 0.494130 3.051506 2.529273 25.445145 31.342628 -31.395630 -24.736622 33.956127 -12.624254 0.075574 -0.176400 -26.287168 -9.725985 24.958379 -4.162400 7.125000 0.000000 0.000000 12.082300 -4.980200 11.246200 
-14.500274 14.444318 0.807663 -10.223937 60.175907 13.294899 5.724325 0.227652 -2.069680 -27.109080 -15.679181 -68.482129 22.088930 23.160639 97.145894 0.541925 -7.066614 -3.872415 1.010000 -6.394500 -17.933500 -5.253153 -0.871484 -1.979698 18.889137 -7.496994 -5.083472 -6.233946 -14.580567 47.959970 -1.597966 19.918611 -3.781842 -6.645500 15.026000 -47.520600 5.812022 2.066080 33.078067 1.220652 6.716813 -0.727643 4.123570 3.070686 0.942841 -11.030823 -9.906395 0.554519 14.065184 -14.277553 -7.870905 12.796000 -3.854200 -6.640700 -1.236644 -0.589807 1.984698 -66.784982 33.121420 37.910217 6.068991 -23.689838 -1.661004 -0.298828 -1.124234 7.251979 30.941221 37.264517 20.599800 -7.125000 0.000000 0.000000 -6.294600 72.811000 -4.157800 0.629175 2.682015 2.643024 27.392099 29.158677 -30.770335 -25.578149 34.827028 -13.399976 0.004198 -0.123513 -23.604520 -8.865202 25.326519 -3.814100 7.125000 0.000000 0.000000 12.631100 -4.790900 11.829100 
-14.057959 14.401208 1.226464 -10.474766 61.499987 13.080648 5.781786 0.237037 -2.129798 -28.394561 -16.361175 -69.994516 20.547964 23.356577 92.897740 0.523847 -6.357325 -4.130638 1.130000 -6.751700 -18.982000 -5.055297 -1.026135 -1.836944 19.144754 -7.873790 -0.714409 -4.730942 -13.056373 42.553561 -1.142382 22.763309 1.625537 -6.419400 14.822900 -46.642800 5.746948 1.686008 32.788765 1.095427 5.934635 -0.708524 3.009580 2.838496 1.371813 -9.607640 -9.674545 0.290270 14.004582 -13.812393 -7.366735 12.406500 -3.863900 -6.569400 -1.251168 -0.284886 1.906787 -66.865577 35.805702 36.147726 5.706811 -23.284285 -1.513324 -0.190295 -1.214919 5.799336 30.169807 36.302347 19.622300 -7.125000 0.000000 0.000000 -6.659600 71.676400 -4.233900 0.600150 2.325671 2.726358 30.740003 27.608029 -30.325185 -26.893676 35.954779 -14.506084 -0.066322 -0.050346 -25.777166 -5.707523 25.573752 -2.436800 7.125000 0.000000 0.000000 14.546100 -4.962700 13.691600 
-13.597137 14.390321 1.660614 -11.278981 62.228837 12.553549 5.806803 0.283527 -2.189932 -29.743154 -16.021837 -71.315411 18.836756 23.412913 88.233360 0.544684 -6.582646 -3.971100 1.038900 -6.482700 -18.191500 -4.908870 -1.094226 -1.712925 19.888568 -7.531854 3.621737 -3.329213 -11.431963 37.225170 -0.783036 23.831985 7.367100 -5.953500 14.383100 -44.794800 4.711200 1.530715 32.289383 1.096530 5.428599 -0.682870 3.603441 2.521576 1.775349 -9.516138 -9.007518 -0.266094 13.823823 -12.883403 -6.416591 12.147800 -3.596600 -6.124600 -1.088631 -0.240383 1.758788 -69.512937 38.693799 32.102578 5.266556 -23.004351 -1.456599 -0.021143 -1.175187 4.898677 26.880711 34.997580 16.673100 -7.125000 0.000000 0.000000 -10.137700 69.217300 -5.902800 0.492069 2.003136 2.745311 33.408017 26.730058 -29.375451 -28.470036 37.265115 -15.618751 -0.049933 0.049782 -30.746360 -3.245773 25.218409 -1.373100 7.125000 0.000000 0.000000 15.973900 -5.591300 14.948100 
